<mxfile host="app.diagrams.net" modified="2021-09-06T10:00:14.535Z" agent="5.0 (Macintosh; Intel Mac OS X 10_15_7) AppleWebKit/537.36 (KHTML, like Gecko) Chrome/92.0.4515.159 Safari/537.36" etag="PRlmLQGTSmOB7cPrs4Rz" version="15.0.6" type="github">
  <diagram id="TCu0VEXtMwf_ScdgzVEV" name="Page-1">
    <mxGraphModel dx="1256" dy="811" grid="1" gridSize="10" guides="1" tooltips="1" connect="1" arrows="1" fold="1" page="1" pageScale="1" pageWidth="827" pageHeight="1169" math="0" shadow="0">
      <root>
        <mxCell id="0" />
        <mxCell id="1" parent="0" />
        <mxCell id="Eo3Ah9OWUtswKMi_MsTc-1" value="" style="ellipse;whiteSpace=wrap;html=1;aspect=fixed;fillColor=#f8cecc;strokeColor=#b85450;" vertex="1" parent="1">
          <mxGeometry x="130" y="360" width="80" height="80" as="geometry" />
        </mxCell>
        <mxCell id="Eo3Ah9OWUtswKMi_MsTc-2" value="" style="ellipse;whiteSpace=wrap;html=1;aspect=fixed;" vertex="1" parent="1">
          <mxGeometry x="140" y="370" width="60" height="60" as="geometry" />
        </mxCell>
        <mxCell id="Eo3Ah9OWUtswKMi_MsTc-11" value="" style="edgeStyle=orthogonalEdgeStyle;rounded=0;orthogonalLoop=1;jettySize=auto;html=1;" edge="1" parent="1" source="Eo3Ah9OWUtswKMi_MsTc-3" target="Eo3Ah9OWUtswKMi_MsTc-7">
          <mxGeometry relative="1" as="geometry" />
        </mxCell>
        <mxCell id="Eo3Ah9OWUtswKMi_MsTc-12" value="任务失败" style="edgeLabel;html=1;align=center;verticalAlign=middle;resizable=0;points=[];" vertex="1" connectable="0" parent="Eo3Ah9OWUtswKMi_MsTc-11">
          <mxGeometry x="-0.14" relative="1" as="geometry">
            <mxPoint as="offset" />
          </mxGeometry>
        </mxCell>
        <mxCell id="Eo3Ah9OWUtswKMi_MsTc-3" value="&lt;font style=&quot;font-size: 18px&quot;&gt;创建中&lt;/font&gt;" style="rounded=0;whiteSpace=wrap;html=1;" vertex="1" parent="1">
          <mxGeometry x="330" y="220" width="120" height="60" as="geometry" />
        </mxCell>
        <mxCell id="Eo3Ah9OWUtswKMi_MsTc-4" value="&lt;font style=&quot;font-size: 16px&quot;&gt;新建&lt;/font&gt;" style="text;html=1;strokeColor=none;fillColor=none;align=center;verticalAlign=middle;whiteSpace=wrap;rounded=0;" vertex="1" parent="1">
          <mxGeometry x="150" y="392" width="40" height="20" as="geometry" />
        </mxCell>
        <mxCell id="Eo3Ah9OWUtswKMi_MsTc-5" value="" style="endArrow=classic;html=1;entryX=0;entryY=0.5;entryDx=0;entryDy=0;" edge="1" parent="1" source="Eo3Ah9OWUtswKMi_MsTc-1" target="Eo3Ah9OWUtswKMi_MsTc-3">
          <mxGeometry width="50" height="50" relative="1" as="geometry">
            <mxPoint x="30" y="320" as="sourcePoint" />
            <mxPoint x="80" y="270" as="targetPoint" />
          </mxGeometry>
        </mxCell>
        <mxCell id="Eo3Ah9OWUtswKMi_MsTc-6" value="创建人群" style="edgeLabel;html=1;align=center;verticalAlign=middle;resizable=0;points=[];" vertex="1" connectable="0" parent="Eo3Ah9OWUtswKMi_MsTc-5">
          <mxGeometry x="-0.073" relative="1" as="geometry">
            <mxPoint as="offset" />
          </mxGeometry>
        </mxCell>
        <mxCell id="Eo3Ah9OWUtswKMi_MsTc-7" value="&lt;font style=&quot;font-size: 18px&quot;&gt;创建失败&lt;/font&gt;" style="rounded=0;whiteSpace=wrap;html=1;" vertex="1" parent="1">
          <mxGeometry x="330" y="380" width="120" height="60" as="geometry" />
        </mxCell>
        <mxCell id="Eo3Ah9OWUtswKMi_MsTc-8" value="&lt;font style=&quot;font-size: 18px&quot;&gt;创建成功&lt;/font&gt;" style="rounded=0;whiteSpace=wrap;html=1;" vertex="1" parent="1">
          <mxGeometry x="600" y="220" width="120" height="60" as="geometry" />
        </mxCell>
        <mxCell id="Eo3Ah9OWUtswKMi_MsTc-9" value="" style="endArrow=classic;html=1;entryX=0;entryY=0.5;entryDx=0;entryDy=0;exitX=1;exitY=0.5;exitDx=0;exitDy=0;" edge="1" parent="1" source="Eo3Ah9OWUtswKMi_MsTc-3" target="Eo3Ah9OWUtswKMi_MsTc-8">
          <mxGeometry width="50" height="50" relative="1" as="geometry">
            <mxPoint x="290" y="150" as="sourcePoint" />
            <mxPoint x="340" y="100" as="targetPoint" />
          </mxGeometry>
        </mxCell>
        <mxCell id="Eo3Ah9OWUtswKMi_MsTc-10" value="任务完成" style="edgeLabel;html=1;align=center;verticalAlign=middle;resizable=0;points=[];" vertex="1" connectable="0" parent="Eo3Ah9OWUtswKMi_MsTc-9">
          <mxGeometry x="0.04" y="-1" relative="1" as="geometry">
            <mxPoint as="offset" />
          </mxGeometry>
        </mxCell>
      </root>
    </mxGraphModel>
  </diagram>
</mxfile>
